<svg width="41" height="45" viewBox="0 0 41 45" fill="none" xmlns="http://www.w3.org/2000/svg">
<g filter="url(#filter0_d)">
<path d="M5.68746 35.0115L18.6581 4.35366C19.3467 2.72604 21.6533 2.72603 22.3419 4.35366L35.3125 35.0115C35.9772 36.5824 34.4964 38.211 32.8694 37.6982L21.1012 33.9895C20.7099 33.8661 20.2901 33.8661 19.8988 33.9895L8.13055 37.6982C6.50363 38.211 5.02281 36.5824 5.68746 35.0115Z" fill="black"/>
<path d="M5.68746 35.0115L18.6581 4.35366C19.3467 2.72604 21.6533 2.72603 22.3419 4.35366L35.3125 35.0115C35.9772 36.5824 34.4964 38.211 32.8694 37.6982L21.1012 33.9895C20.7099 33.8661 20.2901 33.8661 19.8988 33.9895L8.13055 37.6982C6.50363 38.211 5.02281 36.5824 5.68746 35.0115Z" stroke="white" stroke-width="2"/>
</g>
<defs>
<filter id="filter0_d" x="0.522217" y="0.132935" width="39.9554" height="44.6634" filterUnits="userSpaceOnUse" color-interpolation-filters="sRGB">
<feFlood flood-opacity="0" result="BackgroundImageFix"/>
<feColorMatrix in="SourceAlpha" type="matrix" values="0 0 0 0 0 0 0 0 0 0 0 0 0 0 0 0 0 0 127 0"/>
<feOffset dy="2"/>
<feGaussianBlur stdDeviation="2"/>
<feColorMatrix type="matrix" values="0 0 0 0 0 0 0 0 0 0 0 0 0 0 0 0 0 0 0.25 0"/>
<feBlend mode="normal" in2="BackgroundImageFix" result="effect1_dropShadow"/>
<feBlend mode="normal" in="SourceGraphic" in2="effect1_dropShadow" result="shape"/>
</filter>
</defs>
</svg>
